<svg version="1.1" id="Layer_1" xmlns="http://www.w3.org/2000/svg" xmlns:xlink="http://www.w3.org/1999/xlink" x="0px" y="0px"
	 width="100%" viewBox="0 0 800 800" enable-background="new 0 0 800 800" xml:space="preserve">
<path fill="#000000" opacity="1.000000" stroke="none" 
	d="
M464.000000,801.000000 
	C309.333344,801.000000 155.166672,801.000000 1.000000,801.000000 
	C1.000000,534.333313 1.000000,267.666656 1.000000,1.000000 
	C267.666656,1.000000 534.333313,1.000000 801.000000,1.000000 
	C801.000000,267.666656 801.000000,534.333313 801.000000,801.000000 
	C688.833313,801.000000 576.666687,801.000000 464.000000,801.000000 
M115.846016,89.390854 
	C115.266205,89.297493 114.686394,89.204132 113.502197,88.820885 
	C112.298164,89.919785 110.438934,90.799156 109.986382,92.149841 
	C99.886078,122.294830 89.929047,152.487900 80.000450,182.690140 
	C79.501793,184.207031 79.031784,185.986374 79.341858,187.478668 
	C85.351044,216.399582 91.274506,245.341446 97.707741,274.169189 
	C99.608826,282.688019 100.184845,289.464752 90.746475,294.096039 
	C85.527077,296.657135 86.058708,298.358276 91.106987,302.075378 
	C95.824608,305.549011 100.437820,309.164429 105.637527,313.129639 
	C102.044037,315.912628 99.081833,318.226532 96.098465,320.512787 
	C90.989723,324.427856 91.099716,326.375183 96.030693,330.432465 
	C100.834564,334.385162 105.350883,338.687378 110.535454,343.320496 
	C107.433357,345.551819 104.883713,347.582275 102.142014,349.307587 
	C98.800873,351.410095 98.644188,353.013336 101.468323,356.160828 
	C110.519135,366.247925 119.128403,376.731232 127.708908,387.777802 
	C121.834229,405.728546 115.896049,423.658813 110.100136,441.634949 
	C101.961693,466.876465 93.903954,492.144135 85.896820,517.427612 
	C85.231476,519.528503 85.213654,521.834473 84.984802,524.837219 
	C98.413963,570.842529 111.843117,616.847778 125.315552,663.001343 
	C126.929337,662.911621 128.292740,663.070984 129.517731,662.731262 
	C141.734650,659.343567 153.905716,655.789246 166.134201,652.444580 
	C190.140106,645.878662 214.195953,639.494629 238.186691,632.874268 
	C248.332718,630.074402 258.366394,626.867371 268.886810,624.311279 
	C278.815125,632.296753 288.508850,640.597961 298.729523,648.189819 
	C312.308289,658.275940 326.180298,667.982361 340.178253,677.480530 
	C344.751678,680.583740 350.068237,684.557312 355.120422,684.667419 
	C385.759552,685.335022 416.420715,685.039429 447.073914,684.914734 
	C449.201965,684.906128 451.643585,684.144958 453.400543,682.944885 
	C468.827789,672.407715 484.348938,661.986084 499.403992,650.933228 
	C511.102539,642.344666 522.174500,632.902588 534.030701,624.509766 
	C535.293274,624.805115 536.568542,625.055054 537.816650,625.402405 
	C579.079224,636.885742 620.332886,648.401245 661.607971,659.839478 
	C666.535950,661.205078 671.578674,662.156860 676.550537,663.296448 
	C679.862671,652.081421 682.956360,641.649231 686.024231,631.209412 
	C693.714966,605.038513 701.424377,578.872925 709.061707,552.686462 
	C711.838013,543.167114 714.431030,533.594360 717.751099,523.656555 
	C717.625671,522.729919 717.630676,521.762512 717.355591,520.882690 
	C712.192505,504.366302 707.121094,487.819794 701.779297,471.361145 
	C692.536072,442.882111 683.120850,414.458893 674.446777,385.813385 
	C683.613892,375.375000 692.822449,364.972046 701.844788,354.410034 
	C702.384277,353.778534 701.887878,351.386810 701.095947,350.650848 
	C698.256470,348.011993 695.082458,345.733063 691.756836,343.097687 
	C696.987610,338.437714 701.763489,334.121124 706.609131,329.884277 
	C711.081787,325.973572 711.034058,324.520386 706.181580,320.745575 
	C703.013306,318.280975 699.882507,315.768219 696.472961,313.069611 
	C703.231201,307.747009 709.239258,303.015289 715.902405,297.767639 
	C711.820984,294.639069 708.538940,292.163605 705.303345,289.628693 
	C703.162903,287.951782 701.971497,286.439789 702.714966,283.004150 
	C708.957458,254.153625 714.663635,225.187210 720.882019,196.331268 
	C722.496033,188.841675 722.372192,182.030029 719.560608,174.738708 
	C714.865967,162.564194 711.150879,150.011917 707.024597,137.618271 
	C702.010681,122.558533 697.004150,107.496330 691.980164,92.439934 
	C690.763733,88.794266 690.738098,88.802811 687.325928,89.029976 
	C686.739746,89.346870 686.153564,89.663773 685.278320,89.876701 
	C685.278320,89.876701 685.001404,90.009918 684.232544,90.022881 
	C681.498596,91.031075 678.762451,92.033272 676.031128,93.048439 
	C654.984985,100.870712 633.925354,108.656662 612.898132,116.529472 
	C587.619995,125.993912 562.359497,135.505951 537.110840,145.048935 
	C519.683472,151.635834 502.289185,158.310150 483.958832,164.991882 
	C428.344696,164.976440 372.730530,164.961014 316.726135,164.306030 
	C313.201355,163.069870 309.652832,161.897217 306.155548,160.587585 
	C274.489075,148.729431 242.828659,136.855087 211.172424,124.969635 
	C189.411591,116.799454 167.684097,108.539742 145.893799,100.449089 
	C135.995956,96.774071 125.982033,93.411690 116.018288,89.972725 
	C116.018288,89.972725 116.080910,89.954247 115.846016,89.390854 
z"/>
<path fill="#F6851B" opacity="1.000000" stroke="none" 
	d="
M84.894974,524.045166 
	C85.213654,521.834473 85.231476,519.528503 85.896820,517.427612 
	C93.903954,492.144135 101.961693,466.876465 110.100136,441.634949 
	C115.896049,423.658813 121.834229,405.728546 128.039093,387.140320 
	C129.971405,385.710815 131.497742,384.660645 133.186813,384.164673 
	C174.446594,372.048737 215.719482,359.977234 257.013855,347.979767 
	C258.586029,347.522980 260.395721,347.883850 261.930237,348.181274 
	C260.701416,350.372772 259.737671,352.312775 258.557007,354.110321 
	C248.355469,369.641968 238.088058,385.130463 227.920425,400.684204 
	C226.677994,402.584778 225.908356,404.794434 224.689178,406.973145 
	C224.619614,408.079956 224.780472,409.074493 224.982468,410.435883 
	C225.667923,412.505493 226.157669,414.287018 226.979416,415.899384 
	C242.772308,446.887054 258.595642,477.859222 274.447540,508.816742 
	C275.472961,510.819336 276.780090,512.677734 278.709564,515.836731 
	C278.852325,512.762146 279.022247,511.176819 278.984039,509.596527 
	C278.674713,496.802643 278.272736,484.010590 278.043518,471.215424 
	C278.006042,469.125183 278.678101,467.022186 279.364380,465.004761 
	C280.837738,465.365845 281.968994,465.647247 283.457825,466.028351 
	C304.777405,472.336975 325.739410,478.545929 347.077759,484.812134 
	C347.960510,484.901459 348.466919,484.933563 349.259644,485.200073 
	C350.117279,486.951599 350.910400,488.424194 351.225098,489.992798 
	C353.872528,503.190063 356.422821,516.406738 359.021973,529.613708 
	C360.638580,537.828003 362.289307,546.035583 364.209808,555.677734 
	C364.734894,553.702698 364.956665,553.260803 364.954773,552.819763 
	C364.778534,512.115540 366.075867,471.384888 362.886353,430.735138 
	C362.603699,427.133087 361.690460,423.580536 361.069977,419.566528 
	C361.050964,417.079926 361.032074,415.031738 361.013367,412.516754 
	C360.320007,396.631439 359.699707,381.209198 358.908112,365.795715 
	C358.346649,354.862610 357.558685,343.941101 356.863159,333.014954 
	C355.567108,312.655426 354.264771,292.296265 352.947662,271.572144 
	C351.909271,268.892731 350.888306,266.578094 349.871185,263.857727 
	C344.559906,248.249496 339.326477,233.017807 333.907257,217.852539 
	C328.203156,201.890091 322.265015,186.011047 316.612183,170.030807 
	C316.097931,168.577118 316.916656,166.651855 317.116394,164.945587 
	C372.730530,164.961014 428.344696,164.976440 484.726990,165.101624 
	C485.588013,166.849045 486.211792,168.680939 485.694458,170.095459 
	C477.375153,192.842041 468.814240,215.500427 460.528534,238.259048 
	C457.423553,246.787643 454.881775,255.521332 451.886505,264.445312 
	C450.850098,267.376953 450.010406,270.024780 449.121490,273.122070 
	C448.048645,289.111298 446.936890,304.645935 446.027313,320.192383 
	C445.194672,334.424072 444.624023,348.670929 443.858826,362.906830 
	C442.960602,379.618073 441.976929,396.324707 441.013000,413.458099 
	C440.992798,415.588043 440.989929,417.293274 440.783234,419.352356 
	C439.390015,435.248016 437.488037,450.775116 437.168213,466.334747 
	C436.603973,493.784363 437.004547,521.253784 437.001282,548.714966 
	C437.001068,550.492432 437.001251,552.269836 437.001251,554.047302 
	C441.302765,537.082947 444.532288,519.987854 448.071808,502.957214 
	C449.334045,496.883728 451.347473,490.966370 453.390747,484.963684 
	C454.258453,484.902802 454.753448,484.855988 455.429108,484.713928 
	C455.792816,484.414368 455.945038,484.189240 456.015564,483.955078 
	C455.964569,483.966858 455.987274,484.069000 456.390869,484.049835 
	C477.538605,478.014404 498.282776,471.998169 519.383545,465.938538 
	C521.133911,465.542236 522.527649,465.189301 524.133301,465.193787 
	C524.075562,475.313751 523.740601,485.075165 523.559021,494.839417 
	C523.438110,501.343353 523.536011,507.851410 523.536011,515.097168 
	C524.339111,513.919800 524.759827,513.423279 525.050537,512.859741 
	C541.772766,480.443909 558.490723,448.025879 575.175537,415.590790 
	C575.928772,414.126434 576.372253,412.502747 577.161682,410.735809 
	C577.268982,409.299347 577.174683,408.080353 577.035278,406.507538 
	C575.988403,404.261993 575.137817,402.269989 573.960938,400.494324 
	C563.676575,384.977142 553.295227,369.524078 543.055725,353.977478 
	C541.727112,351.960175 541.041382,349.519348 540.440186,347.185272 
	C542.913879,347.603760 545.029114,348.029663 547.092896,348.631897 
	C575.649353,356.965057 604.208252,365.290161 632.745728,373.687927 
	C646.445618,377.719391 660.101746,381.899475 673.777710,386.012268 
	C683.120850,414.458893 692.536072,442.882111 701.779297,471.361145 
	C707.121094,487.819794 712.192505,504.366302 717.355591,520.882690 
	C717.630676,521.762512 717.625671,522.729919 716.953979,523.840576 
	C677.115845,524.008606 638.074890,523.992676 598.561523,523.975525 
	C573.974792,524.302673 549.859619,524.586731 525.747742,525.041870 
	C523.787964,525.078918 521.850281,526.285461 519.577271,527.046570 
	C517.835388,527.998474 516.313477,528.717407 515.017944,529.726807 
	C499.592224,541.745911 484.155853,553.752258 468.821381,565.887146 
	C462.743256,570.697144 456.911011,575.817810 450.670227,580.844604 
	C449.975342,580.937256 449.576996,580.982178 449.024902,580.715820 
	C443.780609,576.495056 439.294403,573.080566 431.617188,573.462708 
	C410.859497,574.495850 390.016510,573.838562 369.207550,573.781128 
	C367.202606,573.775635 364.675781,572.377075 363.295044,573.179810 
	C359.480499,575.397461 356.145020,578.439087 352.350220,581.105591 
	C351.727997,580.959656 351.375702,580.862976 350.822632,580.511597 
	C349.173157,578.901245 347.815735,577.429321 346.261353,576.208252 
	C332.978180,565.773254 319.712646,555.314514 306.331055,545.006714 
	C298.348206,538.857605 290.166473,532.966736 281.824585,526.656494 
	C280.205658,525.894897 278.851929,525.097595 277.464386,525.033569 
	C268.541046,524.621643 259.612091,524.197083 250.681564,524.104309 
	C234.777390,523.939026 218.870804,524.006287 202.498749,523.977234 
	C162.986496,524.000549 123.940742,524.022827 84.894974,524.045166 
z"/>
<path fill="#763D16" opacity="1.000000" stroke="none" 
	d="
M674.112244,385.912842 
	C660.101746,381.899475 646.445618,377.719391 632.745728,373.687927 
	C604.208252,365.290161 575.649353,356.965057 547.092896,348.631897 
	C545.029114,348.029663 542.913879,347.603760 540.058838,347.209412 
	C537.629883,346.313171 535.799255,345.500488 534.325317,344.263031 
	C520.057495,332.283813 505.873352,320.205017 491.617767,308.211182 
	C477.497284,296.331055 463.321960,284.516144 449.170715,272.672607 
	C450.010406,270.024780 450.850098,267.376953 452.213806,264.339020 
	C453.028046,263.786285 453.340271,263.653412 453.605255,263.456818 
	C529.837830,206.901596 606.070984,150.347153 682.261414,93.735184 
	C683.444336,92.856255 684.099792,91.267441 685.001404,90.009918 
	C685.001404,90.009918 685.278320,89.876701 685.774353,89.918228 
	C686.847900,89.595947 687.425354,89.232140 688.002869,88.868332 
	C690.738098,88.802811 690.763733,88.794266 691.980164,92.439934 
	C697.004150,107.496330 702.010681,122.558533 707.024597,137.618271 
	C711.150879,150.011917 714.865967,162.564194 719.560608,174.738708 
	C722.372192,182.030029 722.496033,188.841675 720.882019,196.331268 
	C714.663635,225.187210 708.957458,254.153625 702.714966,283.004150 
	C701.971497,286.439789 703.162903,287.951782 705.303345,289.628693 
	C708.538940,292.163605 711.820984,294.639069 715.902405,297.767639 
	C709.239258,303.015289 703.231201,307.747009 696.472961,313.069611 
	C699.882507,315.768219 703.013306,318.280975 706.181580,320.745575 
	C711.034058,324.520386 711.081787,325.973572 706.609131,329.884277 
	C701.763489,334.121124 696.987610,338.437714 691.756836,343.097687 
	C695.082458,345.733063 698.256470,348.011993 701.095947,350.650848 
	C701.887878,351.386810 702.384277,353.778534 701.844788,354.410034 
	C692.822449,364.972046 683.613892,375.375000 674.112244,385.912842 
z"/>
<path fill="#763D16" opacity="1.000000" stroke="none" 
	d="
M349.867340,264.263489 
	C350.888306,266.578094 351.909271,268.892731 352.686584,271.778900 
	C324.607483,295.919678 296.782623,319.501373 268.915649,343.033234 
	C266.794708,344.824249 264.375397,346.261841 262.094757,347.863708 
	C260.395721,347.883850 258.586029,347.522980 257.013855,347.979767 
	C215.719482,359.977234 174.446594,372.048737 133.186813,384.164673 
	C131.497742,384.660645 129.971405,385.710815 128.138672,386.782227 
	C119.128403,376.731232 110.519135,366.247925 101.468323,356.160828 
	C98.644188,353.013336 98.800873,351.410095 102.142014,349.307587 
	C104.883713,347.582275 107.433357,345.551819 110.535454,343.320496 
	C105.350883,338.687378 100.834564,334.385162 96.030693,330.432465 
	C91.099716,326.375183 90.989723,324.427856 96.098465,320.512787 
	C99.081833,318.226532 102.044037,315.912628 105.637527,313.129639 
	C100.437820,309.164429 95.824608,305.549011 91.106987,302.075378 
	C86.058708,298.358276 85.527077,296.657135 90.746475,294.096039 
	C100.184845,289.464752 99.608826,282.688019 97.707741,274.169189 
	C91.274506,245.341446 85.351044,216.399582 79.341858,187.478668 
	C79.031784,185.986374 79.501793,184.207031 80.000450,182.690140 
	C89.929047,152.487900 99.886078,122.294830 109.986382,92.149841 
	C110.438934,90.799156 112.298164,89.919785 113.959427,89.224968 
	C114.971405,89.737450 115.526161,89.845848 116.080910,89.954254 
	C116.080910,89.954247 116.018288,89.972725 116.024773,90.286835 
	C117.516937,91.911949 118.915688,93.340012 120.500809,94.517113 
	C184.703827,142.193863 248.911530,189.864334 313.152069,237.490494 
	C325.319275,246.510925 337.625336,255.343979 349.867340,264.263489 
z"/>
<path fill="#E4761B" opacity="1.000000" stroke="none" 
	d="
M599.033936,523.976685 
	C638.074890,523.992676 677.115845,524.008606 716.632202,524.035278 
	C714.431030,533.594360 711.838013,543.167114 709.061707,552.686462 
	C701.424377,578.872925 693.714966,605.038513 686.024231,631.209412 
	C682.956360,641.649231 679.862671,652.081421 676.550537,663.296448 
	C671.578674,662.156860 666.535950,661.205078 661.607971,659.839478 
	C620.332886,648.401245 579.079224,636.885742 537.816650,625.402405 
	C536.568542,625.055054 535.293274,624.805115 533.885315,623.863525 
	C533.865723,622.796997 533.991577,622.376648 534.338989,621.716064 
	C555.374451,590.476746 576.196899,559.483398 596.973328,528.459106 
	C597.876770,527.110046 598.356689,525.477356 599.033936,523.976685 
z"/>
<path fill="#E4761B" opacity="1.000000" stroke="none" 
	d="
M84.939896,524.441162 
	C123.940742,524.022827 162.986496,524.000549 202.575378,524.327026 
	C203.880188,526.139709 204.514359,527.688232 205.422760,529.054565 
	C219.482849,550.202148 233.539917,571.352051 247.682907,592.444214 
	C254.322495,602.346191 261.143372,612.126709 267.965454,622.279419 
	C268.182892,623.012817 268.317017,623.429077 268.451141,623.845337 
	C258.366394,626.867371 248.332718,630.074402 238.186691,632.874268 
	C214.195953,639.494629 190.140106,645.878662 166.134201,652.444580 
	C153.905716,655.789246 141.734650,659.343567 129.517731,662.731262 
	C128.292740,663.070984 126.929337,662.911621 125.315552,663.001343 
	C111.843117,616.847778 98.413963,570.842529 84.939896,524.441162 
z"/>
<path fill="#E4761B" opacity="1.000000" stroke="none" 
	d="
M349.871185,263.857727 
	C337.625336,255.343979 325.319275,246.510925 313.152069,237.490494 
	C248.911530,189.864334 184.703827,142.193863 120.500809,94.517113 
	C118.915688,93.340012 117.516937,91.911949 116.026009,90.254211 
	C125.982033,93.411690 135.995956,96.774071 145.893799,100.449089 
	C167.684097,108.539742 189.411591,116.799454 211.172424,124.969635 
	C242.828659,136.855087 274.489075,148.729431 306.155548,160.587585 
	C309.652832,161.897217 313.201355,163.069870 316.921265,164.625809 
	C316.916656,166.651855 316.097931,168.577118 316.612183,170.030807 
	C322.265015,186.011047 328.203156,201.890091 333.907257,217.852539 
	C339.326477,233.017807 344.559906,248.249496 349.871185,263.857727 
z"/>
<path fill="#E2761B" opacity="1.000000" stroke="none" 
	d="
M684.616943,90.016403 
	C684.099792,91.267441 683.444336,92.856255 682.261414,93.735184 
	C606.070984,150.347153 529.837830,206.901596 453.605255,263.456818 
	C453.340271,263.653412 453.028046,263.786285 452.410522,264.055206 
	C454.881775,255.521332 457.423553,246.787643 460.528534,238.259048 
	C468.814240,215.500427 477.375153,192.842041 485.694458,170.095459 
	C486.211792,168.680939 485.588013,166.849045 485.187622,165.078369 
	C502.289185,158.310150 519.683472,151.635834 537.110840,145.048935 
	C562.359497,135.505951 587.619995,125.993912 612.898132,116.529472 
	C633.925354,108.656662 654.984985,100.870712 676.031128,93.048439 
	C678.762451,92.033272 681.498596,91.031075 684.616943,90.016403 
z"/>
<path fill="#C0AD9E" opacity="1.000000" stroke="none" 
	d="
M268.668976,624.078308 
	C268.317017,623.429077 268.182892,623.012817 268.191162,622.047241 
	C269.162170,621.281738 269.990753,621.065491 271.077454,621.095703 
	C271.881439,621.720703 272.387329,622.182983 272.978973,622.465759 
	C295.942627,633.440430 318.908783,644.410034 341.898895,655.329102 
	C343.170074,655.932800 344.648895,656.099304 346.925446,656.708740 
	C346.925446,649.764099 346.925446,643.507324 347.300751,637.266174 
	C352.875458,631.289124 359.828186,631.917480 366.783569,631.952515 
	C391.598053,632.077576 416.413910,632.069885 441.228302,631.934509 
	C445.394714,631.911804 449.047791,632.235779 452.012939,635.623291 
	C452.749359,636.464539 454.540863,636.382263 455.877014,637.172485 
	C455.675201,643.913940 453.701019,650.261353 456.063873,656.914551 
	C457.806305,656.262268 459.069824,655.889587 460.246735,655.333557 
	C479.219025,646.370056 498.203827,637.432373 517.127747,628.367554 
	C521.915344,626.074158 526.500793,623.358704 531.500000,620.884155 
	C532.586304,621.272766 533.351807,621.614563 534.117371,621.956299 
	C533.991577,622.376648 533.865723,622.796997 533.632446,623.528625 
	C522.174500,632.902588 511.102539,642.344666 499.403992,650.933228 
	C484.348938,661.986084 468.827789,672.407715 453.400543,682.944885 
	C451.643585,684.144958 449.201965,684.906128 447.073914,684.914734 
	C416.420715,685.039429 385.759552,685.335022 355.120422,684.667419 
	C350.068237,684.557312 344.751678,680.583740 340.178253,677.480530 
	C326.180298,667.982361 312.308289,658.275940 298.729523,648.189819 
	C288.508850,640.597961 278.815125,632.296753 268.668976,624.078308 
z"/>
<path fill="#E2761B" opacity="1.000000" stroke="none" 
	d="
M687.664429,88.949158 
	C687.425354,89.232140 686.847900,89.595947 685.918884,89.970215 
	C686.153564,89.663773 686.739746,89.346870 687.664429,88.949158 
z"/>
<path fill="#E4761B" opacity="1.000000" stroke="none" 
	d="
M115.963463,89.672554 
	C115.526161,89.845848 114.971405,89.737450 114.261620,89.369911 
	C114.686394,89.204132 115.266205,89.297493 115.963463,89.672554 
z"/>
<path fill="#E4761B" opacity="1.000000" stroke="none" 
	d="
M261.930237,348.181274 
	C264.375397,346.261841 266.794708,344.824249 268.915649,343.033234 
	C296.782623,319.501373 324.607483,295.919678 352.703979,272.143707 
	C354.264771,292.296265 355.567108,312.655426 356.863159,333.014954 
	C357.558685,343.941101 358.346649,354.862610 358.908112,365.795715 
	C359.699707,381.209198 360.320007,396.631439 360.555573,412.520569 
	C355.966736,412.679047 351.840729,412.260376 347.704224,412.072388 
	C324.677002,411.025848 301.648285,410.011230 278.618073,409.033142 
	C260.720123,408.273041 242.819199,407.582397 224.919586,406.860870 
	C225.908356,404.794434 226.677994,402.584778 227.920425,400.684204 
	C238.088058,385.130463 248.355469,369.641968 258.557007,354.110321 
	C259.737671,352.312775 260.701416,350.372772 261.930237,348.181274 
z"/>
<path fill="#E4761B" opacity="1.000000" stroke="none" 
	d="
M449.121490,273.122070 
	C463.321960,284.516144 477.497284,296.331055 491.617767,308.211182 
	C505.873352,320.205017 520.057495,332.283813 534.325317,344.263031 
	C535.799255,345.500488 537.629883,346.313171 539.676453,347.298828 
	C541.041382,349.519348 541.727112,351.960175 543.055725,353.977478 
	C553.295227,369.524078 563.676575,384.977142 573.960938,400.494324 
	C575.137817,402.269989 575.988403,404.261993 576.563904,406.546570 
	C570.348267,407.288361 564.561829,407.696320 558.769165,407.974579 
	C544.533630,408.658478 530.296814,409.318207 516.057739,409.923035 
	C491.049652,410.985260 466.039581,411.999207 441.030334,413.033356 
	C441.976929,396.324707 442.960602,379.618073 443.858826,362.906830 
	C444.624023,348.670929 445.194672,334.424072 446.027313,320.192383 
	C446.936890,304.645935 448.048645,289.111298 449.121490,273.122070 
z"/>
<path fill="#171616" opacity="1.000000" stroke="none" 
	d="
M455.847382,636.724487 
	C454.540863,636.382263 452.749359,636.464539 452.012939,635.623291 
	C449.047791,632.235779 445.394714,631.911804 441.228302,631.934509 
	C416.413910,632.069885 391.598053,632.077576 366.783569,631.952515 
	C359.828186,631.917480 352.875458,631.289124 347.175781,636.808655 
	C348.657043,617.941956 350.638580,599.548462 352.620117,581.154907 
	C356.145020,578.439087 359.480499,575.397461 363.295044,573.179810 
	C364.675781,572.377075 367.202606,573.775635 369.207550,573.781128 
	C390.016510,573.838562 410.859497,574.495850 431.617188,573.462708 
	C439.294403,573.080566 443.780609,576.495056 448.980774,581.132812 
	C451.342712,600.148865 453.595032,618.436707 455.847382,636.724487 
z"/>
<path fill="#CD6116" opacity="1.000000" stroke="none" 
	d="
M224.689178,406.973145 
	C242.819199,407.582397 260.720123,408.273041 278.618073,409.033142 
	C301.648285,410.011230 324.677002,411.025848 347.704224,412.072388 
	C351.840729,412.260376 355.966736,412.679047 360.555389,412.987366 
	C361.032074,415.031738 361.050964,417.079926 360.852478,419.886414 
	C359.200653,427.988495 357.671234,435.315247 356.352112,442.679657 
	C353.829315,456.763672 351.426178,470.869110 348.973358,484.965637 
	C348.466919,484.933563 347.960510,484.901459 347.013214,484.480743 
	C340.551697,471.071564 334.531006,458.051056 328.319519,444.617859 
	C312.731018,451.964355 297.915649,458.946533 283.100250,465.928650 
	C281.968994,465.647247 280.837738,465.365845 279.178162,464.736084 
	C266.445038,452.089996 254.229843,439.802582 242.039871,427.490143 
	C236.315247,421.707977 230.639313,415.877594 224.941315,410.069061 
	C224.780472,409.074493 224.619614,408.079956 224.689178,406.973145 
z"/>
<path fill="#CD6116" opacity="1.000000" stroke="none" 
	d="
M441.013000,413.458099 
	C466.039581,411.999207 491.049652,410.985260 516.057739,409.923035 
	C530.296814,409.318207 544.533630,408.658478 558.769165,407.974579 
	C564.561829,407.696320 570.348267,407.288361 576.609009,406.900391 
	C577.174683,408.080353 577.268982,409.299347 576.835205,410.828888 
	C572.345703,415.106476 568.384460,419.073608 564.422974,423.040497 
	C552.208191,435.271851 539.972046,447.482086 527.805969,459.761719 
	C526.318787,461.262726 525.207092,463.135803 523.921326,464.836426 
	C522.527649,465.189301 521.133911,465.542236 519.216919,465.632141 
	C503.924316,458.557770 489.155029,451.746429 473.971832,444.744171 
	C469.085510,454.988495 464.392303,464.700012 459.827942,474.471710 
	C458.371979,477.588715 457.257843,480.865387 455.987305,484.069000 
	C455.987274,484.069000 455.964569,483.966858 455.849152,484.072510 
	C455.481598,484.318970 455.319824,484.529327 455.248413,484.809174 
	C454.753448,484.855988 454.258453,484.902802 453.383179,484.541199 
	C451.284119,473.976135 449.689758,463.796448 447.813934,453.668915 
	C445.668884,442.087921 443.273590,430.553253 440.987061,418.998474 
	C440.989929,417.293274 440.992798,415.588043 441.013000,413.458099 
z"/>
<path fill="#CD6116" opacity="1.000000" stroke="none" 
	d="
M270.819305,620.849243 
	C269.990753,621.065491 269.162170,621.281738 268.107849,621.730103 
	C261.143372,612.126709 254.322495,602.346191 247.682907,592.444214 
	C233.539917,571.352051 219.482849,550.202148 205.422760,529.054565 
	C204.514359,527.688232 203.880188,526.139709 203.041855,524.326050 
	C218.870804,524.006287 234.777390,523.939026 250.681564,524.104309 
	C259.612091,524.197083 268.541046,524.621643 277.464386,525.033569 
	C278.851929,525.097595 280.205658,525.894897 281.717072,527.057007 
	C281.591980,529.057129 281.230560,530.341858 281.072021,531.651184 
	C279.103455,547.908264 277.102051,564.161682 275.237335,580.430786 
	C273.730835,593.575012 272.398224,606.739197 270.938110,620.131775 
	C270.887726,620.369019 270.819305,620.849243 270.819305,620.849243 
z"/>
<path fill="#CD6116" opacity="1.000000" stroke="none" 
	d="
M534.338989,621.716064 
	C533.351807,621.614563 532.586304,621.272766 531.450928,620.661011 
	C530.943054,620.120911 530.821106,619.843750 530.770203,619.091919 
	C530.794128,617.135864 530.885925,615.633118 530.713562,614.161316 
	C528.481140,595.088928 526.264282,576.014526 523.929260,556.954529 
	C522.702209,546.938477 521.251831,536.949646 519.902344,526.948547 
	C521.850281,526.285461 523.787964,525.078918 525.747742,525.041870 
	C549.859619,524.586731 573.974792,524.302673 598.561523,523.975586 
	C598.356689,525.477356 597.876770,527.110046 596.973328,528.459106 
	C576.196899,559.483398 555.374451,590.476746 534.338989,621.716064 
z"/>
<path fill="#E4761B" opacity="1.000000" stroke="none" 
	d="
M519.577271,527.046570 
	C521.251831,536.949646 522.702209,546.938477 523.929260,556.954529 
	C526.264282,576.014526 528.481140,595.088928 530.713562,614.161316 
	C530.885925,615.633118 530.794128,617.135864 530.422241,618.970947 
	C503.668518,606.477478 477.317688,593.637207 450.966827,580.796997 
	C456.911011,575.817810 462.743256,570.697144 468.821381,565.887146 
	C484.155853,553.752258 499.592224,541.745911 515.017944,529.726807 
	C516.313477,528.717407 517.835388,527.998474 519.577271,527.046570 
z"/>
<path fill="#E4761B" opacity="1.000000" stroke="none" 
	d="
M270.988464,619.894531 
	C272.398224,606.739197 273.730835,593.575012 275.237335,580.430786 
	C277.102051,564.161682 279.103455,547.908264 281.072021,531.651184 
	C281.230560,530.341858 281.591980,529.057129 281.966614,527.360352 
	C290.166473,532.966736 298.348206,538.857605 306.331055,545.006714 
	C319.712646,555.314514 332.978180,565.773254 346.261353,576.208252 
	C347.815735,577.429321 349.173157,578.901245 350.506989,580.684998 
	C323.924225,594.040222 297.456360,606.967407 270.988464,619.894531 
z"/>
<path fill="#D7C0B2" opacity="1.000000" stroke="none" 
	d="
M270.938110,620.131775 
	C297.456360,606.967407 323.924225,594.040222 350.707764,580.939697 
	C351.375702,580.862976 351.727997,580.959656 352.350220,581.105591 
	C350.638580,599.548462 348.657043,617.941956 346.800476,636.793030 
	C346.925446,643.507324 346.925446,649.764099 346.925446,656.708740 
	C344.648895,656.099304 343.170074,655.932800 341.898895,655.329102 
	C318.908783,644.410034 295.942627,633.440430 272.978973,622.465759 
	C272.387329,622.182983 271.881439,621.720703 271.077454,621.095703 
	C270.819305,620.849243 270.887726,620.369019 270.938110,620.131775 
z"/>
<path fill="#D7C0B2" opacity="1.000000" stroke="none" 
	d="
M450.670227,580.844604 
	C477.317688,593.637207 503.668518,606.477478 530.367310,619.438660 
	C530.821106,619.843750 530.943054,620.120911 531.130127,620.614136 
	C526.500793,623.358704 521.915344,626.074158 517.127747,628.367554 
	C498.203827,637.432373 479.219025,646.370056 460.246735,655.333557 
	C459.069824,655.889587 457.806305,656.262268 456.063873,656.914551 
	C453.701019,650.261353 455.675201,643.913940 455.877014,637.172485 
	C453.595032,618.436707 451.342712,600.148865 449.134521,581.444092 
	C449.576996,580.982178 449.975342,580.937256 450.670227,580.844604 
z"/>
<path fill="#E4751F" opacity="1.000000" stroke="none" 
	d="
M224.982468,410.435883 
	C230.639313,415.877594 236.315247,421.707977 242.039871,427.490143 
	C254.229843,439.802582 266.445038,452.089996 278.836060,464.656372 
	C278.678101,467.022186 278.006042,469.125183 278.043518,471.215424 
	C278.272736,484.010590 278.674713,496.802643 278.984039,509.596527 
	C279.022247,511.176819 278.852325,512.762146 278.709564,515.836731 
	C276.780090,512.677734 275.472961,510.819336 274.447540,508.816742 
	C258.595642,477.859222 242.772308,446.887054 226.979416,415.899384 
	C226.157669,414.287018 225.667923,412.505493 224.982468,410.435883 
z"/>
<path fill="#E4751F" opacity="1.000000" stroke="none" 
	d="
M524.133301,465.193787 
	C525.207092,463.135803 526.318787,461.262726 527.805969,459.761719 
	C539.972046,447.482086 552.208191,435.271851 564.422974,423.040497 
	C568.384460,419.073608 572.345703,415.106476 576.633545,411.046387 
	C576.372253,412.502747 575.928772,414.126434 575.175537,415.590790 
	C558.490723,448.025879 541.772766,480.443909 525.050537,512.859741 
	C524.759827,513.423279 524.339111,513.919800 523.536011,515.097168 
	C523.536011,507.851410 523.438110,501.343353 523.559021,494.839417 
	C523.740601,485.075165 524.075562,475.313751 524.133301,465.193787 
z"/>
<path fill="#E4751F" opacity="1.000000" stroke="none" 
	d="
M349.259644,485.200073 
	C351.426178,470.869110 353.829315,456.763672 356.352112,442.679657 
	C357.671234,435.315247 359.200653,427.988495 360.852600,420.324829 
	C361.690460,423.580536 362.603699,427.133087 362.886353,430.735138 
	C366.075867,471.384888 364.778534,512.115540 364.954773,552.819763 
	C364.956665,553.260803 364.734894,553.702698 364.209808,555.677734 
	C362.289307,546.035583 360.638580,537.828003 359.021973,529.613708 
	C356.422821,516.406738 353.872528,503.190063 351.225098,489.992798 
	C350.910400,488.424194 350.117279,486.951599 349.259644,485.200073 
z"/>
<path fill="#E4751F" opacity="1.000000" stroke="none" 
	d="
M440.783234,419.352356 
	C443.273590,430.553253 445.668884,442.087921 447.813934,453.668915 
	C449.689758,463.796448 451.284119,473.976135 453.010437,484.555267 
	C451.347473,490.966370 449.334045,496.883728 448.071808,502.957214 
	C444.532288,519.987854 441.302765,537.082947 437.001251,554.047302 
	C437.001251,552.269836 437.001068,550.492432 437.001282,548.714966 
	C437.004547,521.253784 436.603973,493.784363 437.168213,466.334747 
	C437.488037,450.775116 439.390015,435.248016 440.783234,419.352356 
z"/>
<path fill="#263546" opacity="1.000000" stroke="none" 
	d="
M456.390869,484.049835 
	C457.257843,480.865387 458.371979,477.588715 459.827942,474.471710 
	C464.392303,464.700012 469.085510,454.988495 473.971832,444.744171 
	C489.155029,451.746429 503.924316,458.557770 518.860229,465.675537 
	C498.282776,471.998169 477.538605,478.014404 456.390869,484.049835 
z"/>
<path fill="#263546" opacity="1.000000" stroke="none" 
	d="
M283.457825,466.028381 
	C297.915649,458.946533 312.731018,451.964355 328.319519,444.617859 
	C334.531006,458.051056 340.551697,471.071564 346.636902,484.423462 
	C325.739410,478.545929 304.777405,472.336975 283.457825,466.028381 
z"/>
<path fill="#263546" opacity="1.000000" stroke="none" 
	d="
M455.429108,484.713928 
	C455.319824,484.529327 455.481598,484.318970 455.900146,484.060730 
	C455.945038,484.189240 455.792816,484.414368 455.429108,484.713928 
z"/>
</svg>